<svg width="400" height="150" viewBox="0 0 400 150" fill="none" xmlns="http://www.w3.org/2000/svg">
<g clip-path="url(#clip0_22_2)">
<rect width="400" height="150" rx="10" fill="#FFFCF0"/>
<path d="M142.701 98.048V82.928C142.701 81.008 142.293 79.712 141.477 79.04C140.709 78.32 139.317 77.912 137.301 77.816L137.517 75.512C139.485 75.176 142.917 74.288 147.813 72.848L149.325 73.64V98.912C149.325 104.336 151.557 107.048 156.021 107.048C157.365 107.048 158.781 106.568 160.269 105.608C161.757 104.6 163.077 103.04 164.229 100.928V82.928C164.229 81.008 163.821 79.712 163.005 79.04C162.237 78.32 160.845 77.912 158.829 77.816L159.045 75.512C161.013 75.176 164.445 74.288 169.341 72.848L170.853 73.64V105.248C172.053 106.16 173.853 106.856 176.253 107.336L175.965 110H165.669L164.877 105.104C162.093 108.752 158.853 110.576 155.157 110.576C146.853 110.576 142.701 106.4 142.701 98.048ZM188.989 106.256C190.765 106.784 192.685 107.048 194.749 107.048C196.813 107.048 198.493 106.472 199.789 105.32C201.085 104.12 201.733 102.728 201.733 101.144C201.733 99.56 201.253 98.288 200.293 97.328C199.381 96.32 198.229 95.6 196.837 95.168C195.445 94.688 193.909 94.136 192.229 93.512C190.597 92.888 189.085 92.24 187.693 91.568C186.301 90.896 185.125 89.816 184.165 88.328C183.253 86.792 182.797 84.944 182.797 82.784C182.797 79.856 183.949 77.528 186.253 75.8C188.605 74.024 191.557 73.136 195.109 73.136C198.709 73.136 201.661 73.88 203.965 75.368C206.269 76.808 207.421 78.584 207.421 80.696C207.421 83.384 206.221 84.728 203.821 84.728C201.997 84.728 200.629 84.032 199.717 82.64C200.533 81.968 200.941 81.08 200.941 79.976C200.941 78.824 200.365 77.912 199.213 77.24C198.109 76.568 196.645 76.232 194.821 76.232C193.045 76.232 191.557 76.712 190.357 77.672C189.205 78.584 188.629 79.88 188.629 81.56C188.629 83.24 189.277 84.632 190.573 85.736C191.917 86.84 193.525 87.704 195.397 88.328C197.269 88.904 199.141 89.552 201.013 90.272C202.933 90.944 204.541 92.048 205.837 93.584C207.181 95.12 207.853 97.064 207.853 99.416C207.853 102.92 206.653 105.632 204.253 107.552C201.853 109.472 198.469 110.432 194.101 110.432C192.325 110.432 190.261 110.144 187.909 109.568C185.605 108.944 183.877 108.248 182.725 107.48V97.904L186.901 97.4C187.237 101.336 187.933 104.288 188.989 106.256ZM219.092 101V77.6H212.756V75.44C217.844 73.712 221.156 70.568 222.692 66.008H225.788V73.568H234.572V77.6H225.716V101.576C225.716 103.496 225.932 104.864 226.364 105.68C226.796 106.496 227.78 106.904 229.316 106.904C230.852 106.904 232.46 106.4 234.14 105.392L235.652 107.696C233.252 109.616 230.468 110.576 227.3 110.576C224.132 110.576 221.972 109.856 220.82 108.416C219.668 106.928 219.092 104.456 219.092 101ZM250.515 110.576C247.443 110.576 245.043 109.808 243.315 108.272C241.635 106.688 240.795 104.36 240.795 101.288C240.795 98.168 241.971 95.648 244.323 93.728C246.723 91.808 250.203 90.68 254.763 90.344L260.883 89.912V83.576C260.883 80.984 260.355 79.112 259.299 77.96C258.291 76.76 256.659 76.16 254.403 76.16C250.323 76.16 248.283 77.336 248.283 79.688C248.283 80.984 249.075 81.944 250.659 82.568C250.659 85.016 249.171 86.24 246.195 86.24C244.851 86.24 243.771 85.832 242.955 85.016C242.139 84.2 241.731 83.12 241.731 81.776C241.731 79.088 242.859 76.976 245.115 75.44C247.419 73.856 250.563 73.064 254.547 73.064C258.579 73.064 261.747 74 264.051 75.872C266.355 77.696 267.507 80.264 267.507 83.576V105.248C268.707 106.16 270.507 106.856 272.907 107.336L272.619 110H261.891L261.099 106.544C258.267 109.232 254.739 110.576 250.515 110.576ZM247.635 101C247.635 105.224 249.267 107.336 252.531 107.336C255.123 107.336 257.907 105.848 260.883 102.872V93.08L255.051 93.584C252.747 93.776 250.923 94.544 249.579 95.888C248.283 97.232 247.635 98.936 247.635 101ZM290.389 110L279.085 79.112C278.509 77.528 276.661 76.448 273.541 75.872L273.757 73.568H291.037L290.821 75.872C288.661 76.16 287.053 76.736 285.997 77.6L294.205 102.512L302.413 77.6C301.309 76.784 299.773 76.208 297.805 75.872L298.021 73.568H312.781L312.565 75.872C309.397 76.448 307.645 77.216 307.309 78.176L295.573 110H290.389Z" fill="#100F0F"/>
<path d="M127.672 77.0781C129.599 71.2969 131.891 65.151 134.547 58.6406C137.255 52.0781 139.625 45.5417 141.656 39.0312C143.74 32.4688 144.781 26.2969 144.781 20.5156H157.125C157.125 23.5885 156.344 27.3125 154.781 31.6875C153.219 36.0625 151.214 40.724 148.766 45.6719C146.37 50.5677 143.87 55.4635 141.266 60.3594C138.661 65.2552 136.292 69.8125 134.156 74.0312C132.073 78.25 130.562 81.7917 129.625 84.6562C129.625 84.6562 129.755 85.5156 130.016 87.2344C130.328 88.9531 130.667 91.0885 131.031 93.6406C131.448 96.2448 131.786 98.9271 132.047 101.688C132.359 104.448 132.516 106.844 132.516 108.875C132.516 111.583 132.229 114.318 131.656 117.078C131.135 119.839 130.354 122.13 129.312 123.953C128.323 125.776 127.073 126.688 125.562 126.688C123.323 126.688 121.474 125.047 120.016 121.766C118.557 118.536 117.828 114.344 117.828 109.188C117.828 106.583 118.141 103.797 118.766 100.828C119.443 97.9115 120.198 95.125 121.031 92.4688C121.865 89.8646 122.594 87.7292 123.219 86.0625C123.896 84.3958 124.234 83.5625 124.234 83.5625C124.078 80.5417 123.401 76.8698 122.203 72.5469C121.057 68.224 119.573 63.7448 117.75 59.1094C115.979 54.474 114.078 50.151 112.047 46.1406C110.016 42.0781 108.01 38.7969 106.031 36.2969C104.104 33.7969 102.438 32.5469 101.031 32.5469C99.625 32.5469 98.4792 33.3542 97.5938 34.9688C96.7083 36.5833 95.901 38.224 95.1719 39.8906C94.4427 41.5052 93.6354 42.3125 92.75 42.3125C91.3958 42.3125 90.5885 41.7656 90.3281 40.6719C90.1198 39.526 90.0156 38.0156 90.0156 36.1406C90.0156 35.2031 90.276 33.7708 90.7969 31.8438C91.3177 29.9167 92.0729 27.9375 93.0625 25.9062C94.0521 23.8229 95.1979 22.0521 96.5 20.5938C97.8542 19.1354 99.3125 18.4062 100.875 18.4062C105.823 18.4062 110.51 23.1198 114.938 32.5469C119.417 41.9219 123.661 56.7656 127.672 77.0781Z" fill="#5E409D"/>
</g>
<defs>
<clipPath id="clip0_22_2">
<rect width="400" height="150" rx="10" fill="white"/>
</clipPath>
</defs>
</svg>
