<svg width="273" height="113" viewBox="0 0 273 113" fill="none" xmlns="http://www.w3.org/2000/svg">
<path d="M82.0431 60.6691C82.0431 58.7491 81.9151 57.3411 81.6591 56.4451C81.4671 55.4851 81.0191 54.8131 80.3151 54.4291C79.6751 54.0451 78.6511 53.8531 77.2431 53.8531C77.0511 53.8531 76.9551 53.6611 76.9551 53.2771C76.9551 52.8931 77.0511 52.7011 77.2431 52.7011L81.6591 52.7971C84.0911 52.9251 85.9471 52.9891 87.2271 52.9891C88.3791 52.9891 90.1071 52.9251 92.4111 52.7971L96.7311 52.7011C96.9231 52.7011 97.0191 52.8931 97.0191 53.2771C97.0191 53.6611 96.9231 53.8531 96.7311 53.8531C95.2591 53.8531 94.1711 54.0451 93.4671 54.4291C92.7631 54.7491 92.2831 55.3571 92.0271 56.2531C91.7711 57.1491 91.6431 58.5571 91.6431 60.4771V89.8532C91.6431 91.7732 91.7711 93.2132 92.0271 94.1732C92.2831 95.0692 92.7311 95.6772 93.3711 95.9972C94.0751 96.3172 95.1311 96.4772 96.5391 96.4772C96.7311 96.4772 96.8271 96.6692 96.8271 97.0532C96.8271 97.4372 96.7311 97.6292 96.5391 97.6292L90.2991 97.5332L83.8671 97.6292C83.0991 97.6292 82.5871 97.5332 82.3311 97.3412C82.1391 97.1492 82.0431 96.6372 82.0431 95.8052V60.6691ZM85.6911 85.6292C82.8111 90.1732 79.6431 93.5012 76.1871 95.6132C72.7951 97.7252 69.0511 98.7812 64.9551 98.7812C60.5391 98.7812 56.8271 97.5972 53.8191 95.2292C50.8111 92.8612 49.3071 89.2131 49.3071 84.2851V60.4771C49.3071 58.5571 49.2111 57.1491 49.0191 56.2531C48.8271 55.3571 48.4751 54.7491 47.9631 54.4291C47.4511 54.0451 46.6511 53.8531 45.5631 53.8531C45.4351 53.8531 45.3711 53.6611 45.3711 53.2771C45.3711 52.8931 45.4351 52.7011 45.5631 52.7011L49.3071 52.7971C51.3551 52.9251 53.0191 52.9891 54.2991 52.9891C55.8351 52.9891 57.7551 52.9251 60.0591 52.7971L63.8991 52.7011C64.0271 52.7011 64.0911 52.8931 64.0911 53.2771C64.0911 53.6611 64.0271 53.8531 63.8991 53.8531C62.4271 53.8531 61.3391 54.0451 60.6351 54.4291C59.9311 54.8131 59.4511 55.4851 59.1951 56.4451C58.9391 57.3411 58.8111 58.7491 58.8111 60.6691V81.9812C58.8111 86.8451 59.7071 90.3332 61.4991 92.4452C63.3551 94.5572 65.7871 95.6132 68.7951 95.6132C74.7471 95.6132 79.8351 91.8052 84.0591 84.1892L85.6911 85.6292ZM113.4 59.8051C113.4 61.5971 113.88 63.1651 114.84 64.5091C115.864 65.7891 117.08 66.9091 118.488 67.8692C119.96 68.7652 121.944 69.8531 124.44 71.1331C127.32 72.6691 129.56 73.9811 131.16 75.0691C132.824 76.0931 134.232 77.4371 135.384 79.1012C136.6 80.7651 137.208 82.7491 137.208 85.0531C137.208 87.6131 136.44 89.9491 134.904 92.0612C133.432 94.1092 131.384 95.7412 128.76 96.9572C126.136 98.1732 123.192 98.7812 119.928 98.7812C116.984 98.7812 114.104 98.3972 111.288 97.6292C108.536 96.9252 106.616 96.1252 105.528 95.2292C105.016 94.9092 104.76 94.2372 104.76 93.2132L104.28 82.3651C104.28 82.1091 104.44 81.9492 104.76 81.8851C105.08 81.8211 105.304 81.9171 105.432 82.1731C107.864 86.3971 110.328 89.8531 112.824 92.5412C115.32 95.2292 118.168 96.5732 121.368 96.5732C123.288 96.5732 124.888 95.9972 126.168 94.8452C127.448 93.6932 128.088 91.9652 128.088 89.6611C128.088 87.6132 127.544 85.8211 126.456 84.2851C125.432 82.7491 124.152 81.4692 122.616 80.4451C121.08 79.3571 119.032 78.1091 116.472 76.7011C112.696 74.6532 109.816 72.7331 107.832 70.9411C105.848 69.0851 104.856 66.6851 104.856 63.7411C104.856 60.0291 106.488 57.0851 109.752 54.9091C113.016 52.6691 116.952 51.5491 121.56 51.5491C123.608 51.5491 125.752 51.7731 127.992 52.2211C130.232 52.6691 132.024 53.1811 133.368 53.7571C133.944 53.9491 134.328 54.2051 134.52 54.5251C134.712 54.7811 134.808 55.1651 134.808 55.6771V64.7971C134.808 64.9891 134.648 65.1491 134.328 65.2771C134.008 65.3411 133.784 65.2771 133.656 65.0851C132.44 62.5251 130.744 59.9971 128.568 57.5011C126.392 55.0051 123.512 53.7571 119.928 53.7571C117.752 53.7571 116.12 54.3331 115.032 55.4851C113.944 56.5731 113.4 58.0131 113.4 59.8051ZM161.196 98.7812C157.356 98.7812 154.124 97.7572 151.5 95.7092C148.876 93.6612 147.564 90.2692 147.564 85.5332V60.3811C147.564 58.6531 147.18 57.5011 146.412 56.9251C145.708 56.3491 144.364 56.0611 142.38 56.0611C142.188 56.0611 142.092 55.7731 142.092 55.1971C142.092 54.6211 142.188 54.3331 142.38 54.3331C145.644 54.3331 148.492 53.6291 150.924 52.2211C153.356 50.8131 154.924 48.9571 155.628 46.6531C155.756 46.4611 155.948 46.3651 156.204 46.3651C156.46 46.3651 156.684 46.4291 156.876 46.5571C157.068 46.6211 157.164 46.7171 157.164 46.8451V83.3252C157.164 90.9412 159.98 94.7492 165.612 94.7492C169.068 94.7492 172.076 93.8852 174.636 92.1572L174.828 92.0612C175.084 92.0612 175.244 92.1892 175.308 92.4452C175.436 92.7012 175.404 92.8932 175.212 93.0212C172.588 95.1332 170.22 96.6372 168.108 97.5332C166.06 98.3652 163.756 98.7812 161.196 98.7812ZM172.332 57.9811C167.98 56.9571 161.804 56.4451 153.804 56.4451V53.9491C158.668 53.9491 164.94 53.6291 172.62 52.9891C172.812 52.9891 172.972 53.2131 173.1 53.6611C173.228 54.1091 173.292 54.6531 173.292 55.2931C173.292 55.9331 173.164 56.5731 172.908 57.2131C172.716 57.7891 172.524 58.0451 172.332 57.9811ZM212.545 98.1092C212.289 98.2372 212.001 98.3012 211.681 98.3012C209.953 98.3012 208.353 97.3412 206.881 95.4212C205.409 93.5012 204.673 90.3972 204.673 86.1091V65.2771C204.673 61.3731 204.257 58.5251 203.425 56.7331C202.657 54.9411 201.377 54.0451 199.585 54.0451C197.537 54.0451 195.937 54.9731 194.785 56.8291C193.633 58.6851 192.737 61.0531 192.097 63.9331C191.393 67.5171 189.537 69.3091 186.529 69.3091C184.929 69.3091 183.649 68.9251 182.689 68.1571C181.793 67.3251 181.345 66.1731 181.345 64.7011C181.345 62.7811 182.529 60.8291 184.897 58.8451C187.329 56.7971 190.273 55.1331 193.729 53.8531C197.185 52.5091 200.353 51.8371 203.233 51.8371C206.625 51.8371 209.313 52.7331 211.297 54.5251C213.281 56.2531 214.273 58.8771 214.273 62.3971V82.8451C214.273 85.7251 214.529 87.8691 215.041 89.2771C215.553 90.6851 216.193 91.5811 216.961 91.9651C217.793 92.3492 218.849 92.5412 220.129 92.5412C220.769 92.5412 221.633 92.3812 222.721 92.0612L222.913 91.9651C223.105 91.9651 223.233 92.1252 223.297 92.4452C223.425 92.7652 223.361 92.9572 223.105 93.0212L212.545 98.1092ZM189.793 98.3012C187.297 98.3012 185.249 97.6292 183.649 96.2852C182.049 94.9412 181.249 93.2132 181.249 91.1012C181.249 89.1171 181.889 87.3891 183.169 85.9171C184.513 84.3811 186.369 83.1971 188.737 82.3651L208.033 75.5491L208.321 77.3731L196.417 81.7891C193.345 82.9412 191.809 84.9892 191.809 87.9332C191.809 89.6612 192.225 91.0372 193.057 92.0612C193.889 93.0212 195.009 93.5012 196.417 93.5012C197.441 93.5012 198.849 93.0532 200.641 92.1572L208.993 87.9332L209.089 89.7572L199.585 95.2292C197.665 96.3812 195.937 97.1812 194.401 97.6292C192.929 98.0772 191.393 98.3012 189.793 98.3012ZM272.395 52.7011C272.523 52.7011 272.587 52.8931 272.587 53.2771C272.587 53.6611 272.523 53.8531 272.395 53.8531C270.539 53.8531 268.843 54.6211 267.307 56.1571C265.771 57.6931 264.491 59.8051 263.467 62.4931L249.931 97.5332C249.867 97.7892 249.515 97.9172 248.875 97.9172C248.235 97.9172 247.883 97.7892 247.819 97.5332L230.059 60.6691C228.779 57.9811 227.659 56.1891 226.699 55.2931C225.739 54.3331 224.427 53.8531 222.763 53.8531C222.571 53.8531 222.475 53.6611 222.475 53.2771C222.475 52.8931 222.571 52.7011 222.763 52.7011L226.987 52.7971C229.419 52.9251 231.755 52.9891 233.995 52.9891C235.787 52.9891 237.899 52.9251 240.331 52.7971L244.555 52.7011C244.683 52.7011 244.747 52.8931 244.747 53.2771C244.747 53.6611 244.683 53.8531 244.555 53.8531C241.227 53.8531 239.563 54.8451 239.563 56.8291C239.563 57.5331 239.819 58.4931 240.331 59.7091L253.099 86.4931L248.107 96.2852L260.875 61.9171C261.387 60.5091 261.643 59.2931 261.643 58.2691C261.643 55.3251 259.659 53.8531 255.691 53.8531C255.499 53.8531 255.403 53.6611 255.403 53.2771C255.403 52.8931 255.499 52.7011 255.691 52.7011L259.051 52.7971C261.099 52.9251 263.115 52.9891 265.099 52.9891C266.187 52.9891 267.435 52.9251 268.843 52.7971L272.395 52.7011Z" fill="#FFFCF0"/>
<path d="M12.416 113V21.608H68.736V28.392H34.56V113H12.416ZM19.2 106.216H27.776V28.392H19.2V106.216Z" fill="#8B7EC8"/>
</svg>
